<?xml version="1.0" encoding="UTF-8"?><svg id="Layer_2" xmlns="http://www.w3.org/2000/svg" viewBox="0 0 80 80"><defs><style>.cls-1{fill:#fff;}.cls-2{fill:#392269;}</style></defs><g id="Layer_1-2"><g><path class="cls-2" d="M0,40c0,22.06,17.94,40,40,40,22.06,0,40-17.94,40-40S62.06,0,40,0C17.94,0,0,17.94,0,40Zm29.17-2.83l16-16,5.66,5.66-13.17,13.17,13.17,13.17-5.66,5.66-16-16c-1.56-1.56-1.56-4.1,0-5.66Z"/><path class="cls-1" d="M29.17,42.83l16,16,5.66-5.66-13.17-13.17,13.17-13.17-5.66-5.66-16,16c-1.56,1.56-1.56,4.1,0,5.66Z"/></g></g></svg>