<?xml version="1.0" encoding="UTF-8"?><svg id="Layer_2" xmlns="http://www.w3.org/2000/svg" viewBox="0 0 80 80"><defs><style>.cls-1{fill:#392269;}</style></defs><g id="Layer_1-2"><g><path class="cls-1" d="M28,80c-1.72,0-3.25-1.1-3.79-2.74l-7.09-21.26H4c-2.21,0-4-1.79-4-4V4C0,1.79,1.79,0,4,0H76c2.21,0,4,1.79,4,4V52c0,2.21-1.79,4-4,4H38.88l-7.09,21.26c-.54,1.63-2.07,2.74-3.79,2.74ZM8,48h12c1.72,0,3.25,1.1,3.79,2.74l4.21,12.62,4.21-12.62c.54-1.63,2.07-2.74,3.79-2.74h36V8H8V48Z"/><g><rect class="cls-1" x="20" y="24" width="8" height="8"/><rect class="cls-1" x="36" y="24" width="8" height="8"/><rect class="cls-1" x="52" y="24" width="8" height="8"/></g></g></g></svg>