<?xml version="1.0" encoding="UTF-8"?><svg id="Layer_2" xmlns="http://www.w3.org/2000/svg" xmlns:xlink="http://www.w3.org/1999/xlink" viewBox="0 0 173.32 80.47"><defs><style>.cls-1{fill:#f7ece1;}.cls-2{fill:url(#linear-gradient);}.cls-3{fill:#392269;}</style><linearGradient id="linear-gradient" x1="3.32" y1="40.24" x2="77.15" y2="40.24" gradientUnits="userSpaceOnUse"><stop offset="0" stop-color="#cac4ce"/><stop offset=".31" stop-color="#d3ccd1"/><stop offset=".82" stop-color="#ece2dc"/><stop offset=".99" stop-color="#f7ece1"/></linearGradient></defs><g id="Layer_1-2"><g><g><path class="cls-2" d="M40.24,77.15C19.88,77.15,3.32,60.59,3.32,40.24S19.88,3.32,40.24,3.32s36.92,16.56,36.92,36.92-16.56,36.92-36.92,36.92Z"/><path class="cls-3" d="M40.24,6.64c18.53,0,33.6,15.07,33.6,33.6s-15.07,33.6-33.6,33.6S6.64,58.76,6.64,40.24,21.71,6.64,40.24,6.64M40.24,0C18.01,0,0,18.01,0,40.24s18.01,40.24,40.24,40.24,40.24-18.01,40.24-40.24S62.46,0,40.24,0h0Z"/></g><g><g><rect class="cls-3" x="37.66" y="14.43" width="5.16" height="7.74"/><rect class="cls-3" x="37.66" y="58.3" width="5.16" height="7.74"/><rect class="cls-3" x="58.3" y="37.66" width="7.74" height="5.16"/><rect class="cls-3" x="14.43" y="37.66" width="7.74" height="5.16"/><rect class="cls-3" x="37.66" y="14.43" width="5.16" height="7.74"/><rect class="cls-3" x="37.66" y="58.3" width="5.16" height="7.74"/><rect class="cls-3" x="58.3" y="37.66" width="7.74" height="5.16"/><rect class="cls-3" x="14.43" y="37.66" width="7.74" height="5.16"/><rect class="cls-3" x="51.88" y="22.14" width="7.74" height="5.16" transform="translate(-1.15 46.66) rotate(-45)"/><rect class="cls-3" x="20.85" y="53.17" width="7.74" height="5.16" transform="translate(-32.18 33.81) rotate(-45)"/><rect class="cls-3" x="53.17" y="51.88" width="5.16" height="7.74" transform="translate(-23.09 55.75) rotate(-45)"/><rect class="cls-3" x="22.14" y="20.85" width="5.16" height="7.74" transform="translate(-10.24 24.72) rotate(-45)"/><rect class="cls-3" x="51.88" y="22.14" width="7.74" height="5.16" transform="translate(-1.15 46.66) rotate(-45)"/><rect class="cls-3" x="20.85" y="53.17" width="7.74" height="5.16" transform="translate(-32.18 33.81) rotate(-45)"/><rect class="cls-3" x="53.17" y="51.88" width="5.16" height="7.74" transform="translate(-23.09 55.75) rotate(-45)"/><rect class="cls-3" x="22.14" y="20.85" width="5.16" height="7.74" transform="translate(-10.24 24.72) rotate(-45)"/></g><path class="cls-3" d="M40.24,53.14c-7.12,0-12.9-5.79-12.9-12.9s5.79-12.9,12.9-12.9,12.9,5.79,12.9,12.9-5.79,12.9-12.9,12.9Zm0-20.65c-4.27,0-7.74,3.47-7.74,7.74s3.47,7.74,7.74,7.74,7.74-3.47,7.74-7.74-3.47-7.74-7.74-7.74Z"/></g><g><circle class="cls-3" cx="133.08" cy="40.24" r="40.24"/><path class="cls-1" d="M132.69,69.49c-6.91,0-13.9-2.97-19.25-8.2-5.64-5.51-8.75-12.71-8.75-20.26,0-14.06,10.83-26.28,25.2-28.43,1.1-.16,2.2,.33,2.81,1.27,.61,.94,.61,2.14,0,3.08-5.03,7.86-5.04,17.82-.03,25.35,7.01,10.55,20.15,10.12,20.28,10.12,1.09-.05,2.11,.53,2.62,1.49,.52,.96,.44,2.13-.19,3.01-1.47,2.05-9.46,12.29-22.18,12.57-.18,0-.35,0-.53,0Zm-7.71-49.67c-8.63,3.59-14.6,11.9-14.6,21.2,0,6.01,2.5,11.76,7.04,16.2,4.4,4.3,10.13,6.69,15.67,6.57,6.19-.14,11.03-3.37,14.11-6.21-5.57-1.01-13.79-3.91-19.26-12.13-5.04-7.59-6.03-17.11-2.96-25.63Z"/></g></g></g></svg>