<?xml version="1.0" encoding="UTF-8"?><svg id="Layer_2" xmlns="http://www.w3.org/2000/svg" viewBox="0 0 73.76 79.6"><defs><style>.cls-1{fill:#392269;}</style></defs><g id="Layer_1-2"><path class="cls-1" d="M36.75,79.6c-.94,0-1.88-.35-2.64-1.05C6.05,52.95-4.28,33.44,1.58,17.15,2.47,14.7,7.41,2.38,18.24,.3c8.24-1.58,14.9,3.49,18.71,7.47,3.78-3.85,10.45-8.81,18.64-7.24,8.54,1.64,14.31,9.83,16.65,16.35,5.78,16.05-4.96,36.23-32.85,61.68-.76,.7-1.7,1.05-2.64,1.05ZM21.25,8.85c-.52,0-1.04,.05-1.58,.15-5.4,1.04-9.11,7.63-10.45,11.35-4.14,11.49,5.12,27.97,27.53,49,22.63-21.22,32-37.79,27.86-49.28-1.27-3.53-4.9-9.78-10.45-10.85-7.47-1.45-13.9,7.68-13.97,7.77-.77,1.11-1.99,1.77-3.28,1.77s-2.5-.66-3.28-1.77c-.25-.36-5.74-8.15-12.39-8.15Z"/></g></svg>