<svg xmlns="http://www.w3.org/2000/svg" xmlns:svgjs="http://svgjs.com/svgjs" xmlns:xlink="http://www.w3.org/1999/xlink" width="288" height="288"><svg xmlns="http://www.w3.org/2000/svg" width="288" height="288" viewBox="0 0 80 80"><path fill="#f7ece1" d="M40,80C17.94,80,0,62.06,0,40S17.94,0,40,0s40,17.94,40,40-17.94,40-40,40Zm0-72c-17.65,0-32,14.36-32,32s14.35,32,32,32,32-14.36,32-32S57.65,8,40,8Z" class="color392269 svgShape"/><path fill="#f7ece1" d="M48,56H28v-8h16v-4h-12c-2.21,0-4-1.79-4-4v-12c0-2.21,1.79-4,4-4h20v8h-16v4h12c2.21,0,4,1.79,4,4v12c0,2.21-1.79,4-4,4Z" class="color392269 svgShape"/><rect width="8" height="8" x="36" y="20" fill="#f7ece1" class="color392269 svgShape"/><rect width="8" height="8" x="36" y="52" fill="#f7ece1" class="color392269 svgShape"/></svg></svg>