<?xml version="1.0" encoding="UTF-8"?><svg id="Layer_2" xmlns="http://www.w3.org/2000/svg" viewBox="0 0 61.94 77.42"><defs><style>.cls-1{fill:#392269;}</style></defs><g id="Layer_1-2"><g><path class="cls-1" d="M58.07,77.42H3.87c-2.14,0-3.87-1.73-3.87-3.87V30.97c0-2.14,1.73-3.87,3.87-3.87H58.07c2.14,0,3.87,1.73,3.87,3.87v42.58c0,2.14-1.73,3.87-3.87,3.87Zm-50.32-7.74H54.2V34.84H7.74v34.84Z"/><path class="cls-1" d="M54.2,30.97h-7.74v-11.61c0-6.4-5.21-11.61-11.61-11.61h-7.74c-6.4,0-11.61,5.21-11.61,11.61v11.61H7.74v-11.61C7.74,8.68,16.43,0,27.1,0h7.74c10.67,0,19.36,8.68,19.36,19.36v11.61Z"/><g><rect class="cls-1" x="23.23" y="42.58" width="15.48" height="7.74"/><rect class="cls-1" x="27.1" y="46.45" width="7.74" height="15.48"/></g></g></g></svg>