<?xml version="1.0" encoding="UTF-8"?><svg id="Layer_2" xmlns="http://www.w3.org/2000/svg" viewBox="0 0 80.2 80.2"><defs><style>.cls-1{fill:#392269;}</style></defs><g id="Layer_1-2"><path class="cls-1" d="M66.83,80.2c-.86,0-1.72-.25-2.47-.75l-24.26-16.17-24.26,16.17c-1.55,1.04-3.59,.99-5.1-.11-1.51-1.1-2.17-3.03-1.66-4.82l8.19-28.67L1.3,29.88C.03,28.61-.35,26.69,.34,25.03c.69-1.67,2.31-2.75,4.12-2.75H28.17L35.96,2.8c.68-1.69,2.31-2.8,4.14-2.8s3.46,1.11,4.14,2.8l7.79,19.48h23.72c1.8,0,3.43,1.09,4.12,2.75,.69,1.66,.31,3.58-.97,4.85l-15.97,15.97,8.19,28.67c.51,1.8-.15,3.72-1.66,4.82-.78,.57-1.7,.86-2.63,.86Zm-26.73-26.73c.86,0,1.72,.25,2.47,.75l16.65,11.1-5.58-19.53c-.44-1.56-.01-3.23,1.13-4.37l10.22-10.22h-15.98c-1.82,0-3.46-1.11-4.14-2.8l-4.77-11.94-4.77,11.94c-.68,1.69-2.31,2.8-4.14,2.8H15.21l10.22,10.22c1.14,1.14,1.58,2.82,1.13,4.37l-5.58,19.53,16.65-11.1c.75-.5,1.61-.75,2.47-.75Z"/></g></svg>