<svg xmlns="http://www.w3.org/2000/svg" xmlns:svgjs="http://svgjs.com/svgjs" xmlns:xlink="http://www.w3.org/1999/xlink" width="288" height="288"><svg xmlns="http://www.w3.org/2000/svg" width="288" height="288" viewBox="0 0 79.6 79.6"><path fill="#f7ece1" d="M26.53 35.38c-9.75 0-17.69-7.94-17.69-17.69S16.78 0 26.53 0s17.69 7.94 17.69 17.69-7.94 17.69-17.69 17.69zm0-26.53c-4.88 0-8.84 3.97-8.84 8.84s3.97 8.84 8.84 8.84 8.84-3.97 8.84-8.84-3.97-8.84-8.84-8.84zM48.64 79.6H4.42c-2.44 0-4.42-1.98-4.42-4.42v-13.27c0-12.19 9.92-22.11 22.11-22.11h8.84c12.19 0 22.11 9.92 22.11 22.11v13.27c0 2.44-1.98 4.42-4.42 4.42zm-39.8-8.84H44.22v-8.84c0-7.32-5.95-13.27-13.27-13.27h-8.84c-7.32 0-13.27 5.95-13.27 13.27v8.84z" class="color392269 svgShape"/><g fill="#f7ece1" class="color000 svgShape"><path d="M61.91 35.38c-7.32 0-13.27-5.95-13.27-13.27s5.95-13.27 13.27-13.27 13.27 5.95 13.27 13.27-5.95 13.27-13.27 13.27zm0-17.69c-2.44 0-4.42 1.98-4.42 4.42s1.98 4.42 4.42 4.42 4.42-1.98 4.42-4.42-1.98-4.42-4.42-4.42zM75.18 66.33h-26.53c-2.44 0-4.42-1.98-4.42-4.42v-8.84c0-7.32 5.95-13.27 13.27-13.27h8.84c7.32 0 13.27 5.95 13.27 13.27v8.84c0 2.44-1.98 4.42-4.42 4.42zm-22.11-8.84h17.69v-4.42c0-2.44-1.98-4.42-4.42-4.42h-8.84c-2.44 0-4.42 1.98-4.42 4.42v4.42z" class="color392269 svgShape"/></g></svg></svg>